PathFileType	4	(X/Y/Z)	C:\Users\Basilio\Documents\Thesis Gigler\squatting_fais\c3dfiles\019\SLS_back_pre3\markers_experimental.trc
DataRate	CameraRate	NumFrames	NumMarkers	Units	OrigDataRate	OrigDataStartFrame	OrigNumFrames
200.000000	200.000000	4	59	mm	200.000000	0	1552
Frame#	Time	LBHD			RBHD			C7			T10			CLAV			LSHO			LUUPA			LMUPA			LDUPA			LLEP			LMEP			LRAD			LUL			LRFIN			RSHO			RUPA1			RMUPA			RDUPA			RLEP			RMEP			RRAD			RUL			RUFIN			LASI			RASI			USACR			LSACR			RSACR			LTHI1			LTHI2			LTHI3			LTHI4			LLFC			LTIB1			LTIB2			LTIB3			LTIB4			LLMAL			LMMAL			LHEE			LMT2			LMT5			RTHI			RTHI2			RTHI4			RLFC			RTIB1			RTIB2			RTIB3			RTIB4			RLMAL			RMMAL			RHEE			RMT1			RMT2			RMT5			FHD			LMT1			RTHI3			
		X1	Y1	Z1	X2	Y2	Z2	X3	Y3	Z3	X4	Y4	Z4	X5	Y5	Z5	X6	Y6	Z6	X7	Y7	Z7	X8	Y8	Z8	X9	Y9	Z9	X10	Y10	Z10	X11	Y11	Z11	X12	Y12	Z12	X13	Y13	Z13	X14	Y14	Z14	X15	Y15	Z15	X16	Y16	Z16	X17	Y17	Z17	X18	Y18	Z18	X19	Y19	Z19	X20	Y20	Z20	X21	Y21	Z21	X22	Y22	Z22	X23	Y23	Z23	X24	Y24	Z24	X25	Y25	Z25	X26	Y26	Z26	X27	Y27	Z27	X28	Y28	Z28	X29	Y29	Z29	X30	Y30	Z30	X31	Y31	Z31	X32	Y32	Z32	X33	Y33	Z33	X34	Y34	Z34	X35	Y35	Z35	X36	Y36	Z36	X37	Y37	Z37	X38	Y38	Z38	X39	Y39	Z39	X40	Y40	Z40	X41	Y41	Z41	X42	Y42	Z42	X43	Y43	Z43	X44	Y44	Z44	X45	Y45	Z45	X46	Y46	Z46	X47	Y47	Z47	X48	Y48	Z48	X49	Y49	Z49	X50	Y50	Z50	X51	Y51	Z51	X52	Y52	Z52	X53	Y53	Z53	X54	Y54	Z54	X55	Y55	Z55	X56	Y56	Z56	X57	Y57	Z57	X58	Y58	Z58	X59	Y59	Z59	

1	0	-409.1426696777345	1681.40185546875	-854.1038818359377	-412.553680419922	1673.107543945313	-714.2422485351564	-429.9007873535157	1501.198852539063	-776.3774414062502	-440.7410278320314	1207.08740234375	-776.416442871094	-294.3107299804688	1457.827880859375	-784.6752929687502	-353.6746826171876	1508.04736328125	-922.9238281250002	-223.9229431152344	1471.878173828125	-979.426940917969	-198.4222564697266	1472.10693359375	-937.8269042968752	-157.5305786132813	1466.490234375	-982.720642089844	-86.56893920898439	1427.032958984375	-1009.265747070313	-88.47222900390626	1372.425903320313	-984.5044555664065	151.5885162353516	1471.960327148438	-922.656188964844	159.1910705566407	1424.386108398438	-967.5090942382815	226.4460601806641	1491.501342773438	-926.749938964844	-339.7389526367188	1489.95263671875	-648.7817993164064	-219.5733184814454	1400.7099609375	-553.7023925781251	-189.2238922119141	1431.623291015625	-576.0377197265626	-150.9992828369141	1391.621704101563	-553.3917236328126	-75.71089172363283	1386.3642578125	-564.0260620117189	-84.86878967285158	1338.242065429688	-596.4410400390626	158.5001220703125	1467.275024414063	-623.8822021484376	175.7703552246094	1409.679809570313	-599.2581176757814	241.5635833740235	1482.052856445313	-614.5378417968751	-279.3813781738282	1010.78955078125	-908.113708496094	-254.7390899658204	1009.165283203125	-699.4442749023439	-431.3775939941407	1077.236938476563	-782.6431274414065	-437.5399780273439	1044.178833007813	-809.3967285156252	-429.9952087402345	1045.917724609375	-752.0522460937501	-335.3059082031251	751.3034667968751	-984.996765136719	-293.0889282226563	677.1072998046876	-991.1665039062502	-246.8259887695313	685.4031982421876	-979.423767089844	-314.2702636718751	620.9861450195314	-977.918640136719	-312.6038208007813	524.7482910156251	-968.3618164062502	-271.7635803222657	380.9986877441407	-947.768493652344	-337.8689270019532	345.9526672363282	-995.0312500000002	-299.5578918457032	337.9317932128907	-976.2554931640627	-303.7821044921876	256.5267639160157	-945.7639770507815	-386.3500061035157	136.4347076416016	-962.0832519531252	-362.1767272949219	137.878158569336	-888.1201782226565	-446.4966125488282	101.0698013305664	-909.442321777344	-242.3221588134766	56.89331054687501	-953.437194824219	-292.3449096679688	44.7611312866211	-1003.451293945313	-290.6855773925782	805.3400878906252	-628.1914672851564	-252.0653991699219	752.4833984375001	-640.2747802734376	-280.5943603515626	671.9141235351564	-640.2780761718751	-324.2334899902344	515.1702880859376	-666.8363037109376	-296.7111206054688	334.4830017089844	-733.1248168945314	-346.9572753906251	254.3000488281251	-674.2919921875001	-315.5162658691407	249.1386108398438	-710.3703002929689	-331.5274658203126	212.3032379150391	-752.3657226562501	-390.9015197753907	128.8419647216797	-706.9528808593751	-380.0727539062501	134.7837371826172	-783.4002075195315	-457.2013549804689	106.3363571166992	-753.9643554687501	-259.0660705566407	56.29751586914064	-785.0379638671877	-249.9759063720704	54.42617797851564	-742.2573242187501	-292.1620788574219	49.50772857666017	-683.8226318359376	nan	nan	nan	nan	nan	nan	nan	nan	nan	
2	0.005	-409.3001708984376	1681.430541992188	-854.213317871094	-412.7115783691407	1673.106079101563	-714.3656005859376	-429.8902282714845	1501.193969726563	-776.470397949219	-440.7328491210939	1207.087890625	-776.463317871094	-294.2461547851563	1457.900390625	-784.6917114257815	-353.6908569335938	1508.065185546875	-922.977966308594	-223.9232482910157	1472.1015625	-979.4031372070315	-198.4949798583985	1472.414184570313	-937.7796020507815	-157.4747314453125	1466.85888671875	-982.6372070312502	-86.47470092773439	1427.452880859375	-1009.105651855469	-88.11874389648439	1372.261840820313	-984.8418579101565	151.6661376953125	1472.490600585938	-922.6282958984377	159.27587890625	1424.898193359375	-967.4673461914065	226.5221862792969	1492.033935546875	-926.8902587890627	-339.8044433593751	1490.019287109375	-648.8615722656251	-222.1504058837891	1397.737548828125	-556.8447875976564	-189.7268676757813	1432.231567382813	-576.2130126953126	-152.7832183837891	1388.52197265625	-553.5200195312501	-75.73438262939455	1386.946899414063	-564.0969848632814	-84.66552734375001	1338.69970703125	-597.1795043945314	158.5454711914063	1468.011962890625	-623.9584960937501	173.9235076904297	1406.560424804688	-598.2721557617189	242.8800659179688	1482.333862304688	-615.1638183593751	-279.1674804687501	1010.801940917969	-908.0923461914065	-254.6983642578126	1009.1728515625	-699.4911499023439	-430.987762451172	1077.295166015625	-782.7752075195315	-437.4271545410157	1044.166748046875	-809.440368652344	-429.8970947265626	1045.933959960938	-752.0452270507814	-335.2150268554688	751.3258666992189	-984.9993286132815	-292.9835815429688	677.1712036132814	-991.1834106445315	-246.6422119140626	685.3562011718751	-979.3333740234377	-314.1372375488282	620.9749145507814	-977.9113769531252	-312.5624694824219	524.8076171875001	-968.3723754882815	-271.8211669921876	380.9910583496094	-947.7239379882815	-337.8100891113282	345.9383239746094	-995.0502929687502	-299.4051513671876	337.9639892578126	-976.265319824219	-303.8200073242188	256.4938964843751	-945.7687988281252	-386.350311279297	136.4607849121094	-962.0736083984377	-362.2767028808594	138.02587890625	-888.2747192382815	-446.5386657714845	101.1165161132813	-909.4358520507815	-242.276107788086	56.8933563232422	-953.4121704101565	-292.3601074218751	44.76633834838868	-1003.440734863281	-290.5614318847657	805.3339843750002	-628.1887207031251	-251.9753723144532	752.4888305664064	-640.3607177734376	-277.2781066894532	675.1575927734376	-638.2772827148439	-324.1688232421876	515.1514282226564	-666.8474121093751	-296.9253540039063	334.4244689941407	-733.1686401367189	-346.9254760742188	254.2521667480469	-674.3635864257814	-315.5313110351563	249.0973510742188	-710.3681030273439	-331.4725952148438	212.332504272461	-752.3856201171876	-390.9014892578126	128.8419647216797	-706.9528198242189	-380.1070861816407	134.7660217285157	-783.4492187500002	-457.216522216797	106.3876113891602	-753.9494628906251	-259.0488891601563	56.3052215576172	-785.028991699219	-249.9277038574219	54.43111419677736	-742.1774291992189	-292.1121520996094	49.49460601806642	-683.8554077148439	nan	nan	nan	nan	nan	nan	nan	nan	nan	
3	0.01	-409.4342346191407	1681.41162109375	-854.3258056640627	-412.8626403808595	1673.07568359375	-714.3992309570314	-430.0087280273439	1501.154418945313	-776.585876464844	-440.6607971191407	1207.069946289063	-776.5037231445315	-294.2438049316407	1458	-784.802429199219	-353.7606506347657	1508.114868164063	-923.0617675781252	-224.0890045166016	1472.269287109375	-979.3112792968752	-197.9974975585938	1472.200927734375	-937.424987792969	-156.6837310791016	1467.138916015625	-982.0537109375002	-86.39270782470705	1427.849243164063	-1008.984741210938	-88.01152801513673	1372.715454101563	-984.7497558593752	151.7766265869141	1472.9306640625	-922.654479980469	159.4360809326172	1425.372192382813	-967.4890136718752	226.5535278320313	1492.550659179688	-926.9659423828127	-339.9158020019532	1490.152709960938	-648.9989013671876	-222.1541595458985	1397.968627929688	-556.9124145507814	-189.9190063476563	1432.659423828125	-576.3742065429689	-152.7279357910157	1388.904174804688	-553.6055297851564	-75.61620330810548	1387.487915039063	-564.3057861328126	-84.51031494140626	1339.091552734375	-597.3042602539064	158.5968322753907	1468.609741210938	-624.1014404296876	173.9202728271485	1407.144409179688	-597.9669189453126	242.8482360839844	1483.077270507813	-615.2677001953126	-279.0655212402344	1010.862243652344	-908.1004638671877	-254.5748443603516	1009.181762695313	-699.4384765625001	-430.8335876464845	1077.30322265625	-782.8159179687502	-437.1819763183595	1044.07763671875	-809.4991455078127	-429.8286437988282	1045.935546875	-752.1119995117189	-335.0540161132813	751.3475341796876	-985.0598754882815	-292.8099365234376	677.1436157226564	-991.232849121094	-246.6063537597657	685.3906250000001	-979.4062500000002	-314.0379638671876	621.0161132812501	-977.9712524414065	-312.4307861328126	524.7871704101564	-968.360534667969	-271.7635803222657	380.9986877441407	-947.768493652344	-337.7738037109376	345.9793701171876	-995.076599121094	-299.3987731933594	337.9304504394532	-976.2856445312502	-303.7179260253907	256.5667114257813	-945.7849731445315	-386.3241577148439	136.4494934082032	-962.0947265625002	-362.3280334472657	138.1628875732422	-888.3796386718752	-446.5030822753907	101.1240158081055	-909.434753417969	-242.3291015625001	56.86360168457033	-953.4965820312502	-292.3819885253907	44.76091384887696	-1003.521240234375	-290.5005798339844	805.330017089844	-628.2672119140626	-251.8826751708985	752.4779052734376	-640.3840332031251	-277.1640319824219	675.2066040039064	-638.3721923828126	-324.0673828125001	515.1028442382814	-666.8957519531251	-296.8452758789063	334.4423522949219	-733.2522583007814	-346.9008789062501	254.2807006835938	-674.3637084960939	-315.3412170410157	248.8801879882813	-710.2830200195314	-331.5053710937501	212.3230590820313	-752.3605346679689	-390.8532104492189	128.8694152832032	-706.9685668945314	-380.1522521972657	134.7988433837891	-783.4278564453127	-457.2030334472657	106.3984756469727	-753.9541625976564	-258.8219604492188	55.96252441406251	-784.9407958984377	-249.9784698486329	54.37520980834962	-742.2282104492189	-292.1620788574219	49.5077247619629	-683.8226318359376	nan	nan	nan	nan	nan	nan	nan	nan	nan	
4	0.015	-409.6264648437501	1681.399658203125	-854.459899902344	-413.0332336425782	1672.980712890625	-714.5330810546876	-430.1872558593751	1501.13232421875	-776.667419433594	-440.6671752929689	1207.069580078125	-776.5985107421877	-294.2626953125001	1458.059692382813	-784.8555297851565	-353.7420043945313	1508.132934570313	-923.1221313476565	-224.031478881836	1472.475708007813	-979.280944824219	-198.1087951660157	1472.41650390625	-937.4312133789065	-156.7410736083985	1467.417724609375	-982.0256347656252	-86.31124877929689	1428.232788085938	-1008.8388671875	-87.88698577880861	1373.092895507813	-984.6848754882815	151.8402557373047	1473.467407226563	-922.7598266601565	159.46923828125	1425.831176757813	-967.4763183593752	226.5771026611329	1493.026611328125	-927.0985107421877	-339.8910217285157	1490.311401367188	-649.1356811523439	-222.1019744873047	1398.337280273438	-557.0875244140626	-190.0380859375	1433.068115234375	-576.5167846679689	-153.0229034423828	1389.050903320313	-555.5102539062501	-75.57004547119142	1388.018676757813	-564.5016479492189	-84.42095184326173	1339.693725585938	-597.5557250976564	158.6307220458985	1469.396240234375	-624.2520141601564	174.030517578125	1407.854125976563	-597.9849243164064	241.7810211181641	1484.1767578125	-614.8724975585939	-278.9482727050782	1010.866638183594	-908.1089477539065	-254.5429077148438	1009.160827636719	-699.4912719726564	-430.587127685547	1077.332885742188	-782.8365478515627	-436.8696289062501	1044.081298828125	-809.5230712890627	-429.6741943359376	1045.945434570313	-752.1282348632814	-334.9349365234376	751.3473510742189	-985.044128417969	-292.7804260253907	677.1440429687501	-991.240417480469	-246.4753112792969	685.3823242187501	-979.4366455078127	-313.9734497070313	621.0036010742189	-977.9487304687502	-312.3960876464844	524.7900390625001	-968.3729248046877	-271.7660827636719	381.0032348632813	-947.8068847656252	-337.7124938964844	345.9912414550782	-995.1043701171877	-299.3489685058594	337.9216613769532	-976.3301391601565	-303.7922363281251	256.4986572265626	-945.832214355469	-386.3011169433595	136.4465789794922	-962.108825683594	-365.8148803710938	138.7608947753907	-890.3551025390627	-446.4987792968751	101.1713485717774	-909.4095458984377	-242.319320678711	56.86448287963869	-953.4628906250002	-292.3776550292969	44.77600479125977	-1003.486694335938	-290.4507141113282	805.409851074219	-628.2683105468751	-251.7587127685547	752.3897094726564	-640.2686767578126	-278.7588500976563	676.2609252929689	-637.9473266601564	-324.0154113769532	515.2110595703126	-666.9140014648439	-295.9646606445313	334.5716552734376	-732.9748535156251	-346.9008789062501	254.2807006835938	-674.3637695312501	-315.2899169921876	248.9159088134766	-710.4098510742189	-331.4950561523438	212.3352203369141	-752.4538574218751	-390.8624267578126	128.8772430419922	-706.9617309570314	-380.0397949218751	134.802230834961	-783.4517822265627	-457.3576660156251	106.2356414794922	-753.9678344726564	-258.7719421386719	55.98433303833009	-784.967712402344	-249.9595336914063	54.43626785278322	-742.1714477539064	-292.1371765136719	49.52929306030275	-683.8207397460939	nan	nan	nan	nan	nan	nan	nan	nan	nan	
